<svg width="60" height="10" viewBox="0 0 60 10" fill="none" xmlns="http://www.w3.org/2000/svg">
<rect width="59" height="10" fill="black" fill-opacity="0" transform="translate(1)"/>
<path d="M0.646446 5.35355C0.451185 5.15829 0.451185 4.84171 0.646446 4.64645L3.82843 1.46447C4.02369 1.2692 4.34027 1.2692 4.53553 1.46447C4.7308 1.65973 4.7308 1.97631 4.53553 2.17157L1.70711 5L4.53553 7.82843C4.7308 8.02369 4.7308 8.34027 4.53553 8.53553C4.34027 8.7308 4.02369 8.7308 3.82843 8.53553L0.646446 5.35355ZM21 5.5L1 5.5V4.5L21 4.5V5.5Z" fill="#004C47"/>
<path d="M36.376 2.268V8H35.6V5.392H32.508V8H31.732V2.268H32.508V4.824H35.6V2.268H36.376ZM43.9374 5.136C43.9374 5.56533 43.8694 5.96 43.7334 6.32C43.5974 6.67733 43.4054 6.98533 43.1574 7.244C42.9094 7.50267 42.6107 7.704 42.2614 7.848C41.9147 7.98933 41.5307 8.06 41.1094 8.06C40.688 8.06 40.304 7.98933 39.9574 7.848C39.6107 7.704 39.3134 7.50267 39.0654 7.244C38.8174 6.98533 38.6254 6.67733 38.4894 6.32C38.3534 5.96 38.2854 5.56533 38.2854 5.136C38.2854 4.70667 38.3534 4.31333 38.4894 3.956C38.6254 3.596 38.8174 3.28667 39.0654 3.028C39.3134 2.76667 39.6107 2.564 39.9574 2.42C40.304 2.276 40.688 2.204 41.1094 2.204C41.5307 2.204 41.9147 2.276 42.2614 2.42C42.6107 2.564 42.9094 2.76667 43.1574 3.028C43.4054 3.28667 43.5974 3.596 43.7334 3.956C43.8694 4.31333 43.9374 4.70667 43.9374 5.136ZM43.1414 5.136C43.1414 4.784 43.0934 4.468 42.9974 4.188C42.9014 3.908 42.7654 3.672 42.5894 3.48C42.4134 3.28533 42.2 3.136 41.9494 3.032C41.6987 2.928 41.4187 2.876 41.1094 2.876C40.8027 2.876 40.524 2.928 40.2734 3.032C40.0227 3.136 39.808 3.28533 39.6294 3.48C39.4534 3.672 39.3174 3.908 39.2214 4.188C39.1254 4.468 39.0774 4.784 39.0774 5.136C39.0774 5.488 39.1254 5.804 39.2214 6.084C39.3174 6.36133 39.4534 6.59733 39.6294 6.792C39.808 6.984 40.0227 7.132 40.2734 7.236C40.524 7.33733 40.8027 7.388 41.1094 7.388C41.4187 7.388 41.6987 7.33733 41.9494 7.236C42.2 7.132 42.4134 6.984 42.5894 6.792C42.7654 6.59733 42.9014 6.36133 42.9974 6.084C43.0934 5.804 43.1414 5.488 43.1414 5.136ZM51.8116 2.268V8H51.1316V3.788C51.1316 3.732 51.133 3.672 51.1356 3.608C51.141 3.544 51.1463 3.47867 51.1516 3.412L49.1836 6.996C49.1223 7.116 49.029 7.176 48.9036 7.176H48.7916C48.6663 7.176 48.573 7.116 48.5116 6.996L46.5036 3.396C46.5196 3.53733 46.5276 3.668 46.5276 3.788V8H45.8476V2.268H46.4196C46.489 2.268 46.5423 2.27467 46.5796 2.288C46.617 2.30133 46.653 2.33867 46.6876 2.4L48.6676 5.928C48.6996 5.992 48.7303 6.05867 48.7596 6.128C48.7916 6.19733 48.821 6.268 48.8476 6.34C48.8743 6.268 48.9023 6.19733 48.9316 6.128C48.961 6.056 48.993 5.988 49.0276 5.924L50.9716 2.4C51.0036 2.33867 51.0383 2.30133 51.0756 2.288C51.1156 2.27467 51.1703 2.268 51.2396 2.268H51.8116ZM57.6133 7.368L57.6093 8H54.0773V2.268H57.6093V2.9H54.8533V4.804H57.0853V5.412H54.8533V7.368H57.6133Z" fill="#004C47"/>
</svg>
