<svg width="122" height="45" viewBox="0 0 122 45" fill="none" xmlns="http://www.w3.org/2000/svg">
<rect width="120" height="40.8665" fill="black" fill-opacity="0" transform="translate(2 2)"/>
<rect width="68.2349" height="12.3865" fill="black" fill-opacity="0" transform="translate(53.7656 16.0762)"/>
<path d="M58.2801 28.4627C57.1543 28.4627 56.1722 28.0415 55.3336 27.1991V27.6314C55.3336 27.842 55.2532 28.0193 55.0924 28.1634C54.9431 28.3075 54.7593 28.3795 54.541 28.3795C54.3228 28.3795 54.139 28.3075 53.9896 28.1634C53.8403 28.0193 53.7656 27.842 53.7656 27.6314V16.841C53.7656 16.6304 53.8403 16.453 53.9896 16.3089C54.139 16.1538 54.3228 16.0762 54.541 16.0762C54.7708 16.0762 54.9603 16.1482 55.1096 16.2923C55.259 16.4364 55.3336 16.6193 55.3336 16.841V20.9144C56.1722 20.072 57.1543 19.6508 58.2801 19.6508C58.9923 19.6508 59.6643 19.8281 60.2961 20.1828C60.9394 20.5264 61.4563 21.0363 61.8469 21.7124C62.2489 22.3775 62.45 23.1589 62.45 24.0567C62.45 24.9545 62.2489 25.7415 61.8469 26.4176C61.4563 27.0827 60.9394 27.5926 60.2961 27.9473C59.6643 28.2909 58.9923 28.4627 58.2801 28.4627ZM58.0561 27.0494C58.9061 27.0494 59.5896 26.789 60.1066 26.268C60.6235 25.7471 60.8819 25.01 60.8819 24.0567C60.8819 23.1035 60.6235 22.3664 60.1066 21.8455C59.5896 21.3245 58.9061 21.064 58.0561 21.064C57.5277 21.064 57.028 21.1804 56.557 21.4132C56.0975 21.6349 55.6897 21.9341 55.3336 22.311V25.8025C55.6897 26.1793 56.0975 26.4842 56.557 26.7169C57.028 26.9386 57.5277 27.0494 58.0561 27.0494ZM66.2728 28.3795C66.0545 28.3795 65.8707 28.3075 65.7214 28.1634C65.5721 28.0193 65.4974 27.842 65.4974 27.6314V16.841C65.4974 16.6304 65.5721 16.453 65.7214 16.3089C65.8707 16.1538 66.0545 16.0762 66.2728 16.0762C66.5025 16.0762 66.6921 16.1482 66.8414 16.2923C66.9907 16.4364 67.0654 16.6193 67.0654 16.841V27.6314C67.0654 27.842 66.985 28.0193 66.8242 28.1634C66.6748 28.3075 66.491 28.3795 66.2728 28.3795ZM74.5268 28.4627C73.6422 28.4627 72.8668 28.2798 72.2006 27.914C71.5343 27.5482 71.0174 27.0328 70.6498 26.3678C70.2937 25.6916 70.1157 24.9213 70.1157 24.0567C70.1157 23.1922 70.2937 22.4274 70.6498 21.7623C71.0174 21.0862 71.5343 20.5652 72.2006 20.1995C72.8668 19.8337 73.6422 19.6508 74.5268 19.6508C75.3998 19.6508 76.1694 19.8337 76.8357 20.1995C77.5019 20.5652 78.0189 21.0862 78.3865 21.7623C78.754 22.4274 78.9378 23.1922 78.9378 24.0567C78.9378 24.9213 78.754 25.6916 78.3865 26.3678C78.0189 27.0328 77.5019 27.5482 76.8357 27.914C76.1694 28.2798 75.3998 28.4627 74.5268 28.4627ZM74.5268 27.0827C74.9977 27.0827 75.4457 26.9774 75.8708 26.7668C76.3073 26.5562 76.6634 26.2237 76.9391 25.7692C77.2262 25.3148 77.3698 24.7384 77.3698 24.0401C77.3698 23.3529 77.2262 22.7821 76.9391 22.3276C76.6634 21.8732 76.3073 21.5462 75.8708 21.3467C75.4457 21.1361 74.9977 21.0308 74.5268 21.0308C74.0443 21.0308 73.5848 21.1361 73.1483 21.3467C72.7233 21.5462 72.3729 21.8732 72.0972 22.3276C71.8215 22.7821 71.6837 23.3529 71.6837 24.0401C71.6837 24.7384 71.8215 25.3148 72.0972 25.7692C72.3729 26.2237 72.7233 26.5562 73.1483 26.7668C73.5848 26.9774 74.0443 27.0827 74.5268 27.0827ZM86.061 28.4627C85.234 28.4627 84.4701 28.2853 83.7693 27.9306C83.0686 27.5759 82.5057 27.0661 82.0807 26.401C81.6672 25.736 81.4604 24.9545 81.4604 24.0567C81.4604 23.1589 81.6672 22.3775 82.0807 21.7124C82.5057 21.0474 83.0686 20.5375 83.7693 20.1828C84.4701 19.8281 85.234 19.6508 86.061 19.6508C86.6699 19.6508 87.1925 19.7284 87.629 19.8836C88.077 20.0277 88.4906 20.2161 88.8697 20.4489C89.0994 20.5929 89.2143 20.7869 89.2143 21.0308C89.2143 21.197 89.1454 21.3522 89.0075 21.4963C88.8811 21.6293 88.7318 21.6958 88.5595 21.6958C88.4331 21.6958 88.3068 21.6626 88.1804 21.5961C87.8013 21.4076 87.474 21.2746 87.1983 21.197C86.9341 21.1084 86.6009 21.064 86.1989 21.064C85.211 21.064 84.4356 21.3411 83.8727 21.8953C83.3098 22.4385 83.0284 23.1589 83.0284 24.0567C83.0284 24.9545 83.3098 25.6806 83.8727 26.2348C84.4356 26.7779 85.211 27.0494 86.1989 27.0494C86.6009 27.0494 86.9341 27.0106 87.1983 26.9331C87.474 26.8444 87.8013 26.7058 88.1804 26.5174C88.3068 26.4509 88.4331 26.4176 88.5595 26.4176C88.7318 26.4176 88.8811 26.4897 89.0075 26.6338C89.1454 26.7668 89.2143 26.9164 89.2143 27.0827C89.2143 27.3265 89.0994 27.5205 88.8697 27.6646C88.4906 27.8974 88.077 28.0913 87.629 28.2465C87.1925 28.3906 86.6699 28.4627 86.061 28.4627ZM96.5581 28.4627C95.4323 28.4627 94.4501 28.0415 93.6116 27.1991V27.6314C93.6116 27.842 93.5312 28.0193 93.3704 28.1634C93.221 28.3075 93.0372 28.3795 92.819 28.3795C92.6007 28.3795 92.4169 28.3075 92.2676 28.1634C92.1182 28.0193 92.0436 27.842 92.0436 27.6314V16.841C92.0436 16.6304 92.1182 16.453 92.2676 16.3089C92.4169 16.1538 92.6007 16.0762 92.819 16.0762C93.0487 16.0762 93.2383 16.1482 93.3876 16.2923C93.5369 16.4364 93.6116 16.6193 93.6116 16.841V20.9144C94.4501 20.072 95.4323 19.6508 96.5581 19.6508C97.2703 19.6508 97.9423 19.8281 98.5741 20.1828C99.2173 20.5264 99.7343 21.0363 100.125 21.7124C100.527 22.3775 100.728 23.1589 100.728 24.0567C100.728 24.9545 100.527 25.7415 100.125 26.4176C99.7343 27.0827 99.2173 27.5926 98.5741 27.9473C97.9423 28.2909 97.2703 28.4627 96.5581 28.4627ZM96.3341 27.0494C97.1841 27.0494 97.8676 26.789 98.3845 26.268C98.9014 25.7471 99.1599 25.01 99.1599 24.0567C99.1599 23.1035 98.9014 22.3664 98.3845 21.8455C97.8676 21.3245 97.1841 21.064 96.3341 21.064C95.8056 21.064 95.3059 21.1804 94.835 21.4132C94.3755 21.6349 93.9677 21.9341 93.6116 22.311V25.8025C93.9677 26.1793 94.3755 26.4842 94.835 26.7169C95.3059 26.9386 95.8056 27.0494 96.3341 27.0494ZM107.652 28.4627C106.768 28.4627 105.993 28.2798 105.326 27.914C104.66 27.5482 104.143 27.0328 103.775 26.3678C103.419 25.6916 103.241 24.9213 103.241 24.0567C103.241 23.1922 103.419 22.4274 103.775 21.7623C104.143 21.0862 104.66 20.5652 105.326 20.1995C105.993 19.8337 106.768 19.6508 107.652 19.6508C108.525 19.6508 109.295 19.8337 109.961 20.1995C110.628 20.5652 111.145 21.0862 111.512 21.7623C111.88 22.4274 112.063 23.1922 112.063 24.0567C112.063 24.9213 111.88 25.6916 111.512 26.3678C111.145 27.0328 110.628 27.5482 109.961 27.914C109.295 28.2798 108.525 28.4627 107.652 28.4627ZM107.652 27.0827C108.123 27.0827 108.571 26.9774 108.996 26.7668C109.433 26.5562 109.789 26.2237 110.065 25.7692C110.352 25.3148 110.495 24.7384 110.495 24.0401C110.495 23.3529 110.352 22.7821 110.065 22.3276C109.789 21.8732 109.433 21.5462 108.996 21.3467C108.571 21.1361 108.123 21.0308 107.652 21.0308C107.17 21.0308 106.71 21.1361 106.274 21.3467C105.849 21.5462 105.499 21.8732 105.223 22.3276C104.947 22.7821 104.809 23.3529 104.809 24.0401C104.809 24.7384 104.947 25.3148 105.223 25.7692C105.499 26.2237 105.849 26.5562 106.274 26.7668C106.71 26.9774 107.17 27.0827 107.652 27.0827ZM115.16 28.3795C114.93 28.3795 114.746 28.313 114.608 28.18C114.482 28.0359 114.419 27.8475 114.419 27.6147C114.419 27.4485 114.476 27.2933 114.591 27.1492L117.262 24.1066L114.591 20.9643C114.465 20.8091 114.402 20.6484 114.402 20.4821C114.402 20.2604 114.476 20.0831 114.626 19.9501C114.775 19.806 114.959 19.7339 115.177 19.7339C115.453 19.7339 115.66 19.8281 115.797 20.0166L118.21 22.8929L120.605 20.0166C120.743 19.8281 120.944 19.7339 121.208 19.7339C121.438 19.7339 121.627 19.806 121.777 19.9501C121.926 20.0831 122.001 20.2493 122.001 20.4489C122.001 20.6151 121.943 20.7703 121.828 20.9144L119.106 24.0069L121.794 27.1326C121.92 27.2656 121.983 27.4263 121.983 27.6147C121.983 27.8253 121.914 28.0082 121.777 28.1634C121.639 28.3075 121.443 28.3795 121.191 28.3795C120.938 28.3795 120.737 28.2798 120.588 28.0803L118.141 25.2538L115.832 28.047C115.66 28.2687 115.436 28.3795 115.16 28.3795Z" fill="#004C47"/>
<rect width="42.3527" height="40.8665" fill="black" fill-opacity="0" transform="translate(2 2)"/>
<rect width="17.5096" height="24.974" fill="black" fill-opacity="0" transform="translate(15.1758 10.1733)"/>
<path d="M24.278 35.1473C22.0082 35.1473 20.0279 34.2981 18.3373 32.5996V33.4712C18.3373 33.8958 18.1751 34.2534 17.8509 34.5439C17.5498 34.8344 17.1792 34.9797 16.7391 34.9797C16.2991 34.9797 15.9285 34.8344 15.6274 34.5439C15.3263 34.2534 15.1758 33.8958 15.1758 33.4712V11.7154C15.1758 11.2907 15.3263 10.9332 15.6274 10.6426C15.9285 10.3298 16.2991 10.1733 16.7391 10.1733C17.2023 10.1733 17.5845 10.3186 17.8856 10.6091C18.1867 10.8997 18.3373 11.2684 18.3373 11.7154V19.9283C20.0279 18.2298 22.0082 17.3806 24.278 17.3806C25.7139 17.3806 27.0689 17.7382 28.3427 18.4533C29.6397 19.1461 30.6819 20.1741 31.4694 21.5373C32.28 22.8782 32.6854 24.4537 32.6854 26.2639C32.6854 28.0741 32.28 29.6608 31.4694 31.0241C30.6819 32.365 29.6397 33.393 28.3427 34.1081C27.0689 34.8009 25.7139 35.1473 24.278 35.1473ZM23.8264 32.2979C25.5402 32.2979 26.9183 31.7727 27.9606 30.7224C29.0028 29.672 29.5239 28.1859 29.5239 26.2639C29.5239 24.342 29.0028 22.8558 27.9606 21.8055C26.9183 20.7552 25.5402 20.23 23.8264 20.23C22.7609 20.23 21.7534 20.4646 20.8039 20.9339C19.8774 21.3809 19.0552 21.9843 18.3373 22.7441V29.7838C19.0552 30.5436 19.8774 31.1582 20.8039 31.6275C21.7534 32.0744 22.7609 32.2979 23.8264 32.2979Z" fill="#004C47"/>
<rect x="2" y="2" width="42.3527" height="40.8665" rx="6" stroke="#004C47" stroke-width="4"/>
</svg>
